<?xml version="1.0" standalone="no"?>
<!DOCTYPE svg PUBLIC "-//W3C//DTD SVG 20010904//EN"
 "http://www.w3.org/TR/2001/REC-SVG-20010904/DTD/svg10.dtd">
<svg version="1.0" xmlns="http://www.w3.org/2000/svg"
 width="474.000000pt" height="515.000000pt" viewBox="0 0 474.000000 515.000000"
 preserveAspectRatio="xMidYMid meet">

<g transform="translate(0.000000,515.000000) scale(0.100000,-0.100000)"
fill="#000000" stroke="none">
<path d="M1715 4984 c-43 -22 -74 -53 -97 -97 -17 -34 -21 -71 -28 -290 -5
-139 -9 -259 -10 -267 0 -12 -22 -19 -94 -28 -252 -34 -525 -146 -729 -299
-94 -70 -247 -221 -312 -308 -136 -183 -234 -427 -266 -662 -25 -187 6 -455
74 -633 152 -402 475 -720 891 -875 218 -82 413 -112 665 -102 179 7 303 30
459 82 214 74 415 193 570 339 146 139 239 266 322 438 l48 101 319 139 c417
182 740 323 832 362 89 37 151 94 169 152 16 56 17 1459 1 1519 -16 57 -83
119 -145 133 -27 6 -200 30 -384 52 -184 22 -576 69 -870 105 -294 35 -670 81
-835 100 -165 20 -329 40 -365 45 -98 14 -181 12 -215 -6z m640 -160 c193 -30
474 -70 625 -89 151 -19 309 -39 350 -45 41 -5 134 -16 205 -25 72 -8 164 -20
205 -25 41 -5 197 -23 345 -41 265 -31 315 -43 315 -74 0 -7 -12 -23 -27 -35
-29 -23 -154 -130 -308 -265 -50 -44 -118 -102 -150 -130 -32 -27 -97 -84
-145 -125 -166 -146 -200 -172 -222 -173 -14 -1 -103 53 -228 137 -447 303
-575 389 -825 558 -143 96 -332 223 -420 282 -88 59 -161 111 -163 116 -1 4
19 3 45 -2 26 -4 206 -33 398 -64z m-242 -236 c199 -134 367 -246 372 -251 50
-39 972 -653 998 -665 39 -17 95 -15 139 6 20 9 97 69 169 132 73 63 207 180
298 259 91 79 195 169 230 200 35 31 70 60 77 64 12 7 14 -92 14 -623 0 -419
-4 -638 -10 -651 -12 -22 4 -14 -410 -194 -322 -140 -377 -164 -583 -255 -65
-29 -120 -50 -123 -48 -2 3 3 52 11 109 22 155 20 410 -5 547 -35 195 -122
394 -235 543 -59 76 -196 204 -286 265 -80 56 -235 137 -339 177 -199 78 -360
112 -663 143 l-58 6 6 156 c8 234 16 322 26 322 6 0 173 -109 372 -242z m-517
-480 c-3 -46 -8 -175 -11 -288 -3 -113 -8 -268 -10 -345 -3 -77 -14 -408 -25
-735 -11 -327 -22 -660 -25 -739 -5 -132 -4 -146 15 -187 29 -58 70 -87 135
-92 47 -4 65 2 216 71 431 198 1113 507 1131 513 56 17 -137 -252 -265 -372
-145 -134 -343 -252 -539 -319 -240 -81 -568 -97 -828 -39 -172 39 -346 113
-495 212 -507 337 -721 924 -539 1472 151 454 563 804 1069 909 50 11 110 20
133 20 l44 1 -6 -82z m95 22 c4 0 14 6 21 13 8 7 49 13 113 14 65 1 91 -1 75
-7 -17 -5 4 -8 70 -9 61 -1 105 -6 123 -15 19 -11 27 -12 27 -3 0 8 3 7 9 -2
5 -8 16 -11 26 -8 9 4 14 3 10 -3 -3 -5 4 -10 17 -9 25 1 71 -11 133 -35 33
-13 40 -21 14 -18 -8 1 -12 -47 -12 -168 0 -140 2 -160 19 -153 8 3 14 1 14
-5 0 -6 68 -10 177 -10 98 -1 172 3 164 7 -10 6 -10 10 -1 16 6 4 17 2 23 -4
16 -16 29 -13 26 7 -3 31 1 43 11 37 6 -4 8 -11 5 -16 -4 -5 -1 -9 4 -9 6 0
11 7 11 16 0 8 5 12 11 9 6 -4 8 -13 6 -20 -6 -15 24 -43 41 -37 7 2 12 -1 12
-6 0 -6 -5 -12 -12 -14 -7 -3 -4 -12 11 -27 12 -12 28 -21 34 -18 7 2 21 -7
31 -22 l20 -26 -22 19 c-12 11 -22 15 -22 9 0 -15 36 -44 44 -36 4 4 4 -1 0
-11 -5 -13 -4 -17 3 -13 10 6 23 -13 23 -34 0 -5 -25 -9 -56 -9 -47 0 -57 -3
-61 -20 -6 -23 -19 -26 -26 -7 -3 6 -6 2 -6 -10 -1 -13 4 -23 9 -23 6 0 10
-52 10 -135 0 -83 4 -135 10 -135 6 0 10 -6 10 -12 0 -10 32 -13 130 -12 72 1
132 -2 135 -6 3 -4 -43 -8 -102 -9 -59 -1 -109 -4 -112 -6 -2 -3 46 -5 107 -5
l112 0 2 -40 c1 -22 2 -47 2 -57 1 -14 -15 -17 -119 -21 -66 -2 -128 -9 -138
-14 -16 -8 -18 -19 -14 -70 2 -33 0 -99 -5 -145 -14 -127 -15 -127 155 -124
96 2 137 -1 137 -9 0 -6 -4 -9 -9 -6 -8 6 -21 -47 -21 -89 0 -11 -5 -35 -11
-52 l-11 -33 -106 0 -107 0 -13 -29 c-16 -36 -21 -149 -7 -156 5 -3 -3 -3 -18
0 -23 5 -27 2 -25 -12 2 -13 -5 -19 -24 -21 l-28 -3 2 88 c1 48 3 69 5 46 4
-44 8 -49 32 -34 9 6 10 11 2 15 -6 4 -11 15 -11 25 0 9 -13 32 -28 49 l-29
32 -162 0 c-98 0 -170 4 -183 11 -37 20 -42 -1 -42 -180 -1 -93 2 -167 5 -165
4 2 9 -6 12 -18 5 -16 9 -19 19 -11 14 11 78 6 78 -6 0 -4 -16 -5 -36 -3 -26
3 -35 1 -30 -7 5 -7 -1 -11 -15 -11 -12 0 -19 -3 -16 -6 8 -9 -37 -44 -56 -44
-9 0 -19 -4 -22 -10 -3 -5 -18 -10 -33 -11 -15 0 -43 -7 -62 -15 -33 -13 -34
-14 -5 -9 24 4 21 0 -20 -21 -46 -24 -59 -26 -161 -25 -103 2 -114 0 -138 -21
-17 -15 -29 -37 -33 -63 -7 -47 -16 -61 -45 -68 -19 -5 -20 -3 -15 40 3 31 2
41 -5 32 -7 -10 -8 -8 -5 9 3 12 1 22 -5 22 -5 0 -7 8 -3 19 4 15 -1 19 -32
25 -21 3 -56 6 -79 6 l-41 0 -2 75 -2 75 48 2 48 1 -50 8 c-47 6 -46 7 20 5
65 -1 70 0 73 22 4 24 22 31 22 7 0 -8 5 -15 11 -15 6 0 7 5 2 13 -4 6 -10 78
-13 158 -4 127 -3 146 10 141 10 -4 9 1 -5 17 -29 33 -55 45 -68 32 -6 -6 -29
-11 -50 -11 l-40 0 7 72 c11 121 11 121 68 116 26 -3 46 -3 44 -1 -5 6 27 41
34 37 3 -1 5 63 5 142 0 116 3 147 14 154 21 12 -23 21 -110 22 l-35 0 4 57
c2 31 6 57 7 59 1 2 15 5 31 8 29 5 47 22 38 35 -11 18 17 18 35 0 19 -19 19
-19 24 12 2 18 1 41 -4 52 -4 11 -8 14 -8 8 -1 -7 -4 -13 -8 -13 -5 0 -6 49
-5 108 4 105 3 109 -23 140 -15 18 -22 32 -15 32 6 0 8 5 5 10 -3 6 -16 10
-28 10 -18 0 -19 -2 -7 -10 12 -8 10 -10 -9 -10 -17 0 -22 4 -17 16 3 9 6 33
6 54 0 21 7 45 15 54 23 22 19 39 -5 26 -16 -9 -20 -8 -20 4 0 15 80 64 80 49
0 -5 5 -1 10 7 5 8 10 41 10 72 0 31 5 60 10 63 17 10 12 115 -5 121 -8 4 -15
12 -15 19 0 7 -7 18 -15 25 -9 7 -13 21 -10 30 4 12 -3 25 -20 38 -15 12 -25
30 -24 43 l0 24 11 -22 c6 -13 15 -23 19 -23z m16 34 c-3 -3 -12 -4 -19 -1 -8
3 -5 6 6 6 11 1 17 -2 13 -5z m-27 -81 c0 -21 -3 -24 -9 -14 -5 8 -7 20 -4 28
8 21 13 15 13 -14z m67 -135 c-3 -7 -5 -2 -5 12 0 14 2 19 5 13 2 -7 2 -19 0
-25z m998 -138 c16 -17 16 -20 3 -15 -9 4 -19 13 -22 21 -7 19 -2 18 19 -6z
m-1030 -1320 c3 -5 2 -10 -4 -10 -5 0 -13 5 -16 10 -3 6 -2 10 4 10 5 0 13 -4
16 -10z m715 -384 c0 -2 -7 -6 -15 -10 -8 -3 -15 -1 -15 4 0 6 7 10 15 10 8 0
15 -2 15 -4z"/>
<path d="M2196 4074 c-3 -8 -10 -12 -16 -9 -14 9 -12 -8 3 -25 6 -7 -3 -3 -21
9 -30 21 -41 22 -182 20 -82 -1 -147 -6 -144 -11 3 -4 -2 -8 -10 -8 -9 0 -16
-7 -16 -16 0 -8 -4 -12 -10 -9 -6 4 -10 -6 -11 -22 0 -15 -1 -74 -2 -130 -1
-57 -5 -103 -9 -103 -5 0 -8 -4 -8 -10 0 -5 5 -10 12 -10 6 0 20 -8 30 -17 16
-14 46 -18 174 -21 l154 -4 35 36 c26 27 35 46 35 71 0 20 6 35 16 39 19 7 16
102 -3 99 -8 -2 -13 7 -13 23 0 14 -4 23 -10 19 -5 -3 -10 -1 -10 4 0 6 5 11
11 11 6 0 8 9 4 20 -4 11 -2 20 4 20 13 0 15 27 2 34 -5 3 -12 -1 -15 -10z"/>
<path d="M1708 3713 c7 -3 16 -2 19 1 4 3 -2 6 -13 5 -11 0 -14 -3 -6 -6z"/>
<path d="M1865 3541 c-11 -5 -32 -20 -47 -34 -23 -22 -28 -35 -29 -79 -4 -243
-4 -237 14 -255 15 -16 17 -16 17 -1 0 9 -4 20 -10 23 -5 3 -10 11 -10 18 0 6
8 0 17 -13 9 -14 17 -25 17 -25 1 0 72 2 159 5 86 3 157 2 157 -2 0 -5 11 -8
24 -8 21 0 23 4 26 58 7 173 5 277 -7 275 -6 -2 -14 6 -18 16 -3 10 -16 22
-28 25 -33 9 -259 6 -282 -3z m208 -8 c-34 -2 -93 -2 -130 0 -37 2 -9 3 62 3
72 0 102 -1 68 -3z"/>
<path d="M2334 3533 c-4 -10 -6 -21 -6 -25 1 -5 -2 -8 -7 -8 -6 0 -8 -57 -5
-137 2 -76 4 -144 4 -150 0 -31 52 -40 210 -36 85 2 162 7 170 10 8 3 18 6 21
5 6 -1 3 170 -5 280 -2 27 1 49 8 51 6 2 6 6 -2 11 -7 4 -12 4 -12 -1 0 -4
-81 -7 -180 -5 -112 2 -178 7 -175 12 4 6 2 10 -3 10 -6 0 -13 -8 -18 -17z"/>
<path d="M2804 3305 c0 -55 1 -76 3 -47 2 29 2 74 0 100 -2 26 -3 2 -3 -53z"/>
<path d="M1958 3153 c23 -2 61 -2 85 0 23 2 4 4 -43 4 -47 0 -66 -2 -42 -4z"/>
<path d="M2648 3153 c6 -2 18 -2 25 0 6 3 1 5 -13 5 -14 0 -19 -2 -12 -5z"/>
<path d="M1800 3125 c0 -8 5 -15 10 -15 6 0 10 7 10 15 0 8 -4 15 -10 15 -5 0
-10 -7 -10 -15z"/>
<path d="M1875 3030 c-4 -6 -13 -9 -20 -6 -9 3 -18 -8 -26 -32 -12 -36 -13
-36 -20 -12 -4 14 -5 -18 -1 -70 3 -52 6 -126 6 -165 l1 -70 170 2 c94 2 182
5 196 8 33 7 39 33 39 157 0 49 4 87 8 84 4 -2 8 4 8 14 0 10 -4 16 -8 14 -4
-3 -8 -1 -8 5 0 5 5 11 11 13 15 5 2 31 -22 46 -12 8 -18 9 -14 3 8 -14 3 -14
-28 2 -32 17 -282 23 -292 7z"/>
<path d="M2370 3027 c0 -4 -9 -5 -20 -2 -18 6 -20 3 -15 -17 3 -13 1 -86 -4
-163 -6 -109 -6 -143 4 -154 10 -10 54 -13 206 -12 171 2 195 4 203 19 6 9 9
78 7 152 -2 106 -6 140 -19 160 l-17 25 -172 1 c-95 0 -173 -4 -173 -9z"/>
<path d="M2735 3030 c-3 -5 -1 -10 4 -10 6 0 11 5 11 10 0 6 -2 10 -4 10 -3 0
-8 -4 -11 -10z"/>
<path d="M2322 2960 c0 -19 2 -27 5 -17 2 9 2 25 0 35 -3 9 -5 1 -5 -18z"/>
<path d="M2233 2835 c0 -44 2 -61 4 -37 2 23 2 59 0 80 -2 20 -4 1 -4 -43z"/>
<path d="M2760 2805 c0 -32 2 -56 5 -53 7 7 9 97 2 105 -4 3 -7 -20 -7 -52z"/>
<path d="M2230 2716 c0 -9 5 -16 10 -16 6 0 10 4 10 9 0 6 -4 13 -10 16 -5 3
-10 -1 -10 -9z"/>
<path d="M3046 2631 c-4 -7 -5 -15 -2 -18 9 -9 19 4 14 18 -4 11 -6 11 -12 0z"/>
<path d="M1625 2620 c-3 -5 3 -10 15 -10 12 0 18 5 15 10 -3 6 -10 10 -15 10
-5 0 -12 -4 -15 -10z"/>
<path d="M1640 2584 c0 -8 5 -12 10 -9 6 3 10 10 10 16 0 5 -4 9 -10 9 -5 0
-10 -7 -10 -16z"/>
<path d="M1875 2501 c18 -9 18 -10 2 -10 -11 -1 -27 -11 -38 -23 -16 -20 -18
-41 -19 -155 0 -128 1 -133 25 -158 30 -29 16 -27 185 -25 107 1 139 5 153 17
9 9 17 12 17 7 0 -5 5 -2 10 6 16 25 13 283 -4 306 -13 17 -31 20 -158 25 -78
3 -154 9 -168 13 -21 5 -22 5 -5 -3z"/>
<path d="M2098 2503 c12 -2 32 -2 45 0 12 2 2 4 -23 4 -25 0 -35 -2 -22 -4z"/>
<path d="M2698 2503 c7 -3 16 -2 19 1 4 3 -2 6 -13 5 -11 0 -14 -3 -6 -6z"/>
<path d="M2893 2503 c9 -2 25 -2 35 0 9 3 1 5 -18 5 -19 0 -27 -2 -17 -5z"/>
<path d="M1803 2410 c0 -25 2 -35 4 -22 2 12 2 32 0 45 -2 12 -4 2 -4 -23z"/>
<path d="M2233 2275 c0 -27 2 -38 4 -22 2 15 2 37 0 50 -2 12 -4 0 -4 -28z"/>
<path d="M1799 2214 c-2 -31 0 -51 6 -51 6 0 9 16 7 36 -6 64 -8 67 -13 15z"/>
<path d="M2322 2195 c0 -16 2 -22 5 -12 2 9 2 23 0 30 -3 6 -5 -1 -5 -18z"/>
<path d="M1765 2120 c-3 -5 -1 -10 4 -10 6 0 11 5 11 10 0 6 -2 10 -4 10 -3 0
-8 -4 -11 -10z"/>
<path d="M2075 1989 c-10 -16 1 -22 26 -14 17 6 19 9 8 16 -19 12 -26 11 -34
-2z"/>
<path d="M1801 1904 c0 -11 3 -14 6 -6 3 7 2 16 -1 19 -3 4 -6 -2 -5 -13z"/>
<path d="M2730 1611 c-55 -12 -112 -46 -157 -94 -51 -55 -67 -85 -55 -100 5
-7 58 -73 117 -147 60 -74 184 -227 274 -340 300 -374 535 -664 571 -708 90
-111 216 -124 294 -32 31 38 50 102 41 146 -7 40 -32 75 -215 301 -211 260
-321 397 -554 688 -115 143 -217 268 -228 278 -21 18 -32 19 -88 8z"/>
</g>
</svg>
