<?xml version="1.0" standalone="no"?>
<!DOCTYPE svg PUBLIC "-//W3C//DTD SVG 20010904//EN"
 "http://www.w3.org/TR/2001/REC-SVG-20010904/DTD/svg10.dtd">
<svg version="1.0" xmlns="http://www.w3.org/2000/svg"
 width="198.000000pt" height="200.000000pt" viewBox="0 0 198.000000 200.000000"
 preserveAspectRatio="xMidYMid meet">

<g transform="translate(0.000000,200.000000) scale(0.100000,-0.100000)"
fill="#000000" stroke="none">
<path d="M125 1985 c-51 -18 -101 -72 -115 -124 -7 -27 -10 -301 -8 -883 l3
-843 24 -38 c13 -21 42 -50 64 -65 l41 -27 857 0 857 0 43 30 c23 17 52 48 63
70 21 40 21 47 21 900 l0 860 -24 38 c-13 21 -42 50 -64 65 l-41 27 -840 2
c-707 2 -847 0 -881 -12z m770 -75 c3 -5 -10 -40 -28 -77 -50 -98 -103 -247
-134 -371 -23 -91 -27 -129 -28 -252 0 -131 2 -150 23 -196 50 -109 127 -149
263 -134 224 25 359 148 418 381 31 123 46 340 30 462 -7 56 -13 120 -13 142
l-1 40 50 7 c28 3 83 7 123 7 70 1 73 0 84 -26 17 -39 13 -314 -6 -461 -58
-445 -230 -704 -531 -798 -44 -13 -107 -28 -140 -32 l-60 -9 50 -7 c170 -26
300 -83 397 -174 58 -55 128 -143 128 -161 0 -4 -67 -8 -148 -9 -138 -2 -152
-1 -203 21 -72 32 -145 47 -230 47 -76 0 -118 -13 -164 -52 -29 -25 -34 -25
-252 -32 -256 -7 -241 -14 -202 88 51 137 191 232 389 266 l75 13 -71 12
c-135 24 -220 62 -296 133 -168 157 -183 389 -57 842 45 160 94 276 133 315
25 25 25 25 210 25 107 0 187 -4 191 -10z"/>
</g>
</svg>
