<?xml version="1.0" standalone="no"?>
<!DOCTYPE svg PUBLIC "-//W3C//DTD SVG 20010904//EN"
 "http://www.w3.org/TR/2001/REC-SVG-20010904/DTD/svg10.dtd">
<svg version="1.0" xmlns="http://www.w3.org/2000/svg"
 width="512.000000pt" height="512.000000pt" viewBox="0 0 512.000000 512.000000"
 preserveAspectRatio="xMidYMid meet">

<g transform="translate(0.000000,512.000000) scale(0.100000,-0.100000)"
fill="#000000" stroke="none">
<path d="M320 4453 c5 -16 226 -793 490 -1728 265 -935 490 -1721 499 -1746
26 -68 86 -154 144 -204 61 -53 171 -109 245 -124 34 -7 217 -11 502 -11 l449
0 11 38 c6 20 87 298 179 617 l168 580 639 0 639 0 3 -346 c2 -281 0 -348 -11
-358 -10 -7 -151 -12 -472 -13 l-458 -3 -73 -250 c-40 -137 -73 -254 -74 -258
0 -4 267 -6 593 -5 l592 3 60 24 c137 55 243 148 301 266 63 128 64 141 64
838 l0 627 -1100 0 -1100 0 -5 -22 c-3 -13 -84 -291 -178 -618 l-173 -595
-228 0 -229 0 -393 1385 c-216 762 -393 1391 -394 1398 0 10 58 12 273 10
l272 -3 144 -507 145 -508 272 0 273 0 -15 53 c-8 28 -106 374 -218 767 l-203
715 -821 3 -821 2 9 -27z"/>
</g>
</svg>
